<svg id="Layer_1" data-name="Layer 1" xmlns="http://www.w3.org/2000/svg" viewBox="0 0 400 400"><defs><style>.cls-1{fill:#689bb5;}.cls-2{isolation:isolate;font-size:41.89px;fill:#fff;font-family:ArialMT, Arial;}.cls-3{fill:#6b6b6b;}.cls-4{fill:#5c8b9e;}.cls-5{fill:#00d1b7;}.cls-6{fill:#cca99b;}.cls-7{fill:#c1a093;}.cls-8{fill:#f7bab0;}.cls-9{fill:#f8cdba;}.cls-10{fill:#00aa91;}.cls-11{fill:#969696;}</style></defs><rect class="cls-1" x="174.13" y="9.8" width="93.2" height="86.6"/><text class="cls-2" transform="translate(198.03 66.79) scale(0.6 1)">&lt; / &gt;</text><rect class="cls-3" x="28.33" y="306.7" width="183.9" height="93.3"/><path class="cls-4" d="M302.93,263c.8,4.8,14.4,113.5,16.6,115.3s25.5,5.8,27.5,2.8c.4-4.8,1-80.6,2.2-87.4"/><path class="cls-1" d="M40.43,240.3c-9.4-4.6,10.2,87.2,61.8,87.2s138.6-78.6,152.6-78.6c31.1,0,104.6,61,110.3,61,4.4-4.4,13.2-12.1,13.2-15.2s-70.4-118.9-123.1-118.9C235,175.7,61.73,250.8,40.43,240.3Z"/><path class="cls-4" d="M69.53,241.9c10.3-2.3,23.2-8.4,34.5-14.6-30.9,10.1-56.3,16.6-63.6,13-5-2.5-1.8,22.1,9.9,45.8C48.23,281.5,45.23,247.4,69.53,241.9Z"/><path class="cls-5" d="M92.23,80.8c8.1.2,50.5-1,62.1,10,8.6,8.2,35.4,78.7,39.5,103.5-18,9.1-147.6,71.2-187.8,43.9-.9-21.2,3.2-105.5,29.5-149.8C45.13,82,84.43,80.6,92.23,80.8Z"/><path class="cls-6" d="M108.73,60.6H84V87.2c0,6.7,24.7,6.6,24.7,0Z"/><path class="cls-7" d="M84,76.6c0-2.9,8.2-10.4,13.2-10.1.1-3.3-11.5-8-11.5-8L84,63Z"/><path class="cls-6" d="M125.63,36.6c-4.2-.6-8.4-3.9-11.3-6.1C97.73,42.7,87,42.9,85.83,42.9s-5.8,6.7-8,7.5l-.2-.1a26,26,0,0,0,51.1-9.3,31.66,31.66,0,0,0-1.2-4.4A6,6,0,0,1,125.63,36.6Z"/><path class="cls-7" d="M119.63,51.1a.52.52,0,0,1-.4-.2.62.62,0,0,1,.1-.7,5,5,0,0,0,2.1-2.7c.2-1.4-.9-2.7-1.7-3.7-.2-.2-.3-.4-.5-.6a.5.5,0,0,1,.8-.6c.1.2.3.4.4.6.9,1.1,2.2,2.7,1.9,4.5a5.1,5.1,0,0,1-2.5,3.3A.35.35,0,0,1,119.63,51.1Z"/><path class="cls-7" d="M109.33,58.3h-.1c-2.8-.8-3.5-3.8-3.5-5.5a.5.5,0,0,1,1,0c0,.2,0,3.7,2.9,4.5a.42.42,0,0,1,.3.6C109.73,58.1,109.53,58.3,109.33,58.3Z"/><ellipse class="cls-8" cx="97.83" cy="51.1" rx="3.9" ry="2"/><ellipse class="cls-8" cx="126.93" cy="51.1" rx="3.9" ry="2"/><path class="cls-9" d="M153.43,154.3l26.4-6.8c2.5,4.3,14.9,46.7,14.9,46.7l-40.8,17.2C154.53,203.4,156.13,166.6,153.43,154.3Z"/><path class="cls-10" d="M56.53,169.2h-.1a.42.42,0,0,1-.3-.6c1.6-5.9,4.3-17.9,4.3-21a.5.5,0,0,1,1,0c0,3.4-2.8,15.8-4.3,21.2C56.93,169,56.73,169.2,56.53,169.2Z"/><path class="cls-10" d="M153.43,154.7a.66.66,0,0,1-.5-.4c-1-7.7-4.6-34-10.7-48.2a.47.47,0,1,1,.9-.3c6.1,14.3,9.8,40.7,10.7,48.4.1.3-.1.5-.4.5Z"/><path class="cls-6" d="M153.43,154.3l26.4-6.8c2.5,4.3,14.9,46.7,14.9,46.7l-40.8,17.2C154.53,203.4,156.13,166.6,153.43,154.3Z"/><path class="cls-3" d="M366,307.6c.6,1,8.5,10.6,11.3,10.7s19.7-11.4,19-13.8-11.4-.9-13.2-1.7-5.9-4.9-6.6-6.7"/><path class="cls-3" d="M324.43,379.3c-.2,1.1-1.3,13.5.7,15.5s22.1,5.5,23.2,3.2-7.6-8.5-8.3-10.4-.8-7.6,0-9.4"/><polygon class="cls-11" points="292.83 196.9 203.24 196.9 224.53 140.4 314.13 140.4 292.83 196.9"/><rect class="cls-11" x="128.63" y="194.7" width="89.6" height="2.1"/><path class="cls-6" d="M56.53,168.7c-1.7,6.4-10.1,34-6.7,38.8s88.7-6,111.5-13.1c5.8-1.9,10.1-6.9,12.7-7.5a13.56,13.56,0,0,1,15.4,9.7c-9.1,4.4-140.7,71.6-183.3,41.7-8.1-5.8,6.1-76.2,6.7-79.7C20,159.4,56.53,168.7,56.53,168.7Z"/><path class="cls-7" d="M189.43,196.9a.55.55,0,0,1-.5-.3,13.08,13.08,0,0,0-14.8-9.4c-1,.2-2.3,1.3-3.9,2.5-2.3,1.7-5.2,3.9-8.7,5-1.9.6-4.1,1.2-6.7,1.8-.3.1-.5-.1-.6-.4s.1-.5.4-.6q3.9-.9,6.6-1.8a31,31,0,0,0,8.4-4.9c1.8-1.3,3.1-2.3,4.3-2.6a13.94,13.94,0,0,1,15.9,10.1.49.49,0,0,1-.3.6Z"/><path class="cls-6" d="M127.63,36.7s-4.3-14.2-13.4-17-26.2-6.6-36.5,3,0,27.6,0,27.6"/><circle class="cls-6" cx="78.53" cy="51.9" r="4.6"/><path class="cls-5" d="M73.93,51.3c-5.4-5.4-9.7-18.1-9.7-24.5,0-13.1,7.7-18.5,9.2-18.5s3,3,2.7,5.2c1.3-1.8,12.7-13,33.4-13,5.7,0,9.8,2.8,9.8,7.3,0,2.1-1,5.3-2.6,6.4a4.33,4.33,0,0,1,4.1,4.7c0,3.8-5.1,5.6-7.2,5.6s-5.1-2.1-6.5-4.1c-.5,2.2.9,5.8-3.9,5.8-2,0-10.5-4.3-12.1-5.7,1.6,2.8,3.8,4,3.8,7.2,0,2.9-1.4,5-3.7,5s-8.6-3-9.8-4.4c-.3,2,2,15.9,1.3,19.7C79.43,46,74.73,48.2,73.93,51.3Z"/><path class="cls-7" d="M79.13,55.8h0a3.55,3.55,0,0,1,0-7.1c.2,0,.4.1.4.3s-.1.4-.3.4a2.85,2.85,0,0,0,0,5.7c.2,0,.3.2.3.4S79.23,55.8,79.13,55.8Z"/></svg>