<svg id="Layer_1" data-name="Layer 1" xmlns="http://www.w3.org/2000/svg" viewBox="0 0 400 400"><defs><style>.cls-1{fill:#689bb5;}.cls-2{fill:#99857e;}.cls-3{fill:#6b6b6b;}.cls-4{fill:#f8cdba;}.cls-5{fill:#46dbc9;}.cls-6{fill:#969696;}.cls-7{fill:#00d1b7;}.cls-8{fill:#fff;}.cls-9{fill:#c1a093;}.cls-10{fill:#f7bab0;}.cls-11{fill:#00aa91;}.cls-12{fill:none;stroke:#00aa91;stroke-linecap:round;stroke-miterlimit:10;}.cls-13{fill:#877670;}</style></defs><path class="cls-1" d="M108.05,168.07a1.51,1.51,0,0,0,2.7,1l19.57-21.57a.44.44,0,0,1,.33-.14h97.22a7.28,7.28,0,0,0,7.28-7.28V106.61a8.74,8.74,0,0,0-8.71-8.71H116.76a8.74,8.74,0,0,0-8.71,8.71v60.18"/><path class="cls-2" d="M293.55,222.3c0,17.9,6.91,21.33,7.8,24.4,1,3.43-3.5,21.1-4.5,23.4,2.6,3.7,21.2,5.6,24.7,4.6.3-3.5,4.7-26.2,5.7-27.7s12.2-10.5,12.2-18c0-16.7-1.1-38.9-12.2-38.9C313.75,190.2,293.55,196.8,293.55,222.3Z"/><path class="cls-3" d="M349.45,275.6c-8.7.2-27.4,3.6-27.4,3.6-.1,9.2,2.4,106.2,2.8,120.8h53.5l19-110.1a14.3,14.3,0,0,0-14.3-14.3h0s-23,.3-32,0Z"/><path class="cls-4" d="M125.65,359.3c2.9-1.6,31-22.4,32.6-24.4s7.1-13.1,7.5-13.8,3.4-2.1,3.8-1.8c2.3,1.9-1.4,8.5-1.8,9.5,2.1-1.9,15.5-12.4,17.1-11.8,11.8,3.7,7.4,19.4,0,23.2-2,1-13.1,5.3-14.1,6.2s-47.6,39.7-48.7,40.4C121.35,384.1,122.75,360.9,125.65,359.3Z"/><path class="cls-2" d="M244.85,301c-2.1,3.1-7.4,10.9-9.5,13.9-22.6-29.7-46-47-52.2-76.3-5.9-3.8-5.6,9.7-1.1,19.8-7,4.5-13.6,8.9-11.6,12.2,7.8,12.7,10.1,8.7,13,8.9s26.2,47.9,32.9,55.4c4.9,5.5,8.8,12,24,18.6,1.6-14,11.9-47.1,14-49.6C252.55,302.7,247,297.9,244.85,301Z"/><path class="cls-5" d="M252.35,307.4c-7-5.3-11.7-9.5-11.9-11.5-.3-4.7,27.7-44.4,46.7-31.8C295.35,270,266.25,317.8,252.35,307.4Z"/><path class="cls-5" d="M305,261c-56,.5-67.1,96.6-69.7,139h105.9c13.4-41.6,23.3-130.3-27.4-138.4A64,64,0,0,0,305,261Z"/><path class="cls-6" d="M16.25,278a13.61,13.61,0,0,0-13.6,13.6h0s9.8,79.2,13.3,108.1h73.5c0-4.7-.1-102.9-.9-121.7Z"/><path class="cls-7" d="M90.65,274.7c-48.9,0-58.6,85.3-57.2,124.9h89.7C131.15,360.4,132.45,274.7,90.65,274.7Z"/><path class="cls-2" d="M327.25,246.64c-1,2.9-5.6,24.5-6,27.9-4.3,1.6-22.1-1-24.3-4.4,2.2-6.4,4.5-19.1,4.3-24.5"/><path class="cls-8" d="M213.35,115.7h-79c-.8,0-1.5-.5-1.5-1.1s.7-1.1,1.5-1.1h79c.8,0,1.5.5,1.5,1.1S214.15,115.7,213.35,115.7Z"/><path class="cls-8" d="M161.85,132.9h-27.6c-.8,0-1.5-.5-1.5-1.1s.7-1.1,1.5-1.1h27.6c.8,0,1.5.5,1.5,1.1S162.75,132.9,161.85,132.9Z"/><path class="cls-1" d="M261.47,72.4H166.15a8.2,8.2,0,0,1-8.2-8.2V21a10.5,10.5,0,0,1,10.5-10.5h112.8A10.5,10.5,0,0,1,291.75,21V97.34a2.09,2.09,0,0,1-3.63,1.42L265.3,74.08A5.22,5.22,0,0,0,261.47,72.4Z"/><path class="cls-8" d="M187,35.8h74.9a1.4,1.4,0,0,0,0-2.8H187a1.37,1.37,0,0,0-1.4,1.4A1.43,1.43,0,0,0,187,35.8Z"/><path class="cls-8" d="M235.75,53.5h26.1a1.4,1.4,0,0,0,0-2.8h-26.1a1.4,1.4,0,0,0,0,2.8Z"/><path class="cls-4" d="M20.75,328l.1.1c-1.8,4-17.8,49.2-17.1,53s4.4,10.4,7.2,12c1.3.7,13.7,3.4,28.6,6.6.2,0,.4.1.6.1h84.1a2.83,2.83,0,0,0,1.5-5.2,23,23,0,0,0-12-3.4c-2.1-.1-5.3,0-7.9,2.2a2.82,2.82,0,0,1-2.8.3c-25.6-11.5-53.6-18.4-63.7-21a2.72,2.72,0,0,1-1.9-1.7h0a3,3,0,0,1,.1-2.3c2.8-5.3,8.6-15.9,11.3-21a2.77,2.77,0,0,0-1.1-3.7c-7.7-4.3-26.7-15.6-26.9-15.7l-.1-.3Z"/><path class="cls-7" d="M62.55,287.4c20.4,11.9-1,57.3-6.5,58.7-10.8.7-35.8-14.9-38.2-21.2S42.45,275.6,62.55,287.4Z"/><path class="cls-4" d="M74.55,284c3-8.1,2.5-35.2,2.2-37.9-.4-3.2-2.8-26.6,3.1-31.5s14.9-10.5,20.2-10.1,21.1,16.3,21.1,35.6-17.5,28.5-21.6,28.6c-.6,4.3-.5,15.7-.5,19.9C97.25,290.2,78.85,289.6,74.55,284Z"/><path class="cls-7" d="M77.45,229.8c-2.7-.1-4.9,2-7.2,4.1-2.1-13.3,5.1-36.8,15.4-38.4,1.8.1,2,2.1,1.5,3.9,6.4-5.2,18.6-8,23.7-8.1,6.7,0,9,4.6,9,6.2,0,4-3,10-4.1,11.5a10.86,10.86,0,0,1,4.5-1.1c3.4,0,4.3,4.7,4.3,6.1,0,4.9-5.9,9.8-8.8,9.8-1.4,0-5.1-1.9-6.3-3.3a6.61,6.61,0,0,1,.9,2.9c0,1.3-2.2,2-3.4,2-3.4,0-10.2-5.8-16.4-5.8-2.1,0-4.7,2.6-4.7,4.1s.9,8.4.3,8.6c-1.6,1.1-2.3-2.2-8.7-2.5"/><path class="cls-4" d="M79.05,244.8a8.36,8.36,0,0,1-2.7-16.5,8.4,8.4,0,0,1,8.7,4.3"/><path class="cls-2" d="M333.55,220.8a8.71,8.71,0,1,1-6.3,12.6"/><path class="cls-2" d="M367.55,326.9c-6.4,3.4-18.7,5.3-34.2,5.9.4,9.4,2.5,38.9,3.6,55.1-2.4,3.6-6,8.4-8.8,12.1h26.5c4.1-6.9,9.9-16.7,10.7-19C366.65,377.4,367.05,342.5,367.55,326.9Z"/><path class="cls-5" d="M339.45,273.2c21.5-4.7,36.2,47.5,33.1,51.9s-41.9,10.8-45.3,7.6S321.45,277.1,339.45,273.2Z"/><path class="cls-7" d="M343.45,227.3c5.5-5.5,9-18.5,9-25,0-13.4-7.9-18.9-9.3-18.9s-3,3.1-2.8,5.3c-1.3-1.8-13-13.2-34-13.2-5.8,0-10,2.8-10,7.5,0,2.1,1,5.4,2.7,6.5a4.5,4.5,0,0,0-4.2,4.8c0,3.9,5.2,5.8,7.3,5.8s5.2-2.2,6.7-4.2c.5,2.2-.9,5.9,3.9,5.9,2.1,0,10.7-4.4,12.3-5.8-1.6,2.8-3.9,4.1-3.9,7.3,0,3,1.5,5.1,3.7,5.1s8.8-3.1,10-4.5c.3,2-2,16.2-1.3,20.1C337,221.9,342.65,224.1,343.45,227.3Z"/><path class="cls-9" d="M77.65,241.2h0a3.93,3.93,0,0,1-3.8-3.8,4,4,0,0,1,3.8-4.2.4.4,0,1,1,0,.8,3.14,3.14,0,0,0-3,3.3,3.07,3.07,0,0,0,3,3,.43.43,0,0,1,.4.4C78.05,241.1,77.85,241.2,77.65,241.2Z"/><path class="cls-9" d="M108.25,248.6c-.1,0-.3-.1-.3-.2a.47.47,0,0,1,.1-.6,3.58,3.58,0,0,0,1.7-2.3c.2-1.2-.7-2.3-1.4-3.2-.1-.2-.3-.3-.4-.5a.43.43,0,0,1,.7-.5c.1.1.2.3.4.5.8,1,1.8,2.3,1.6,3.8a3.93,3.93,0,0,1-2.1,2.8C108.45,248.5,108.35,248.6,108.25,248.6Z"/><path class="cls-9" d="M105.75,261.6h-.2a5.81,5.81,0,0,1-6-4.2.57.57,0,0,1,.4-.7c.3-.1.7,0,.7.3a4.87,4.87,0,0,0,4.9,3.5.56.56,0,0,1,.6.5A.68.68,0,0,1,105.75,261.6Z"/><ellipse class="cls-10" cx="91.15" cy="246.9" rx="3.3" ry="1.7"/><ellipse class="cls-10" cx="120.25" cy="245.2" rx="2.4" ry="1.7"/><path class="cls-9" d="M76,277.1c3.9-4.1,19.3-8.6,23.5-8.4-19-.1-22.6-7.1-22.6-7.1Z"/><path class="cls-11" d="M37,369.6h0a1,1,0,0,1-.4-1.3l13.1-24.5.8.4a6.1,6.1,0,0,0,5.1.2c4.1-1.8,6.8-8,7.6-10.2a1,1,0,0,1,1.2-.6h0a.93.93,0,0,1,.6,1.2c-.9,2.5-3.8,9.2-8.6,11.3a7.51,7.51,0,0,1-5.1.4,1,1,0,0,0-1.1.5l-11.9,22.3A1,1,0,0,1,37,369.6Z"/><path class="cls-9" d="M336.37,236.53h0a5.48,5.48,0,0,0,5.29-5.29,5.59,5.59,0,0,0-5.29-5.84.56.56,0,1,0,0,1.11,4.36,4.36,0,0,1,4.17,4.59,4.27,4.27,0,0,1-4.17,4.18.6.6,0,0,0-.56.56C335.81,236.39,336.09,236.53,336.37,236.53Z"/><path class="cls-9" d="M302,227.4c.1,0,.3-.09.31-.19a.46.46,0,0,0-.08-.6,3.6,3.6,0,0,1-1.59-2.38c-.14-1.21.8-2.26,1.54-3.13.11-.2.32-.29.43-.48a.48.48,0,0,0-.08-.61.47.47,0,0,0-.6.08c-.11.09-.21.29-.42.48-.85,1-1.9,2.21-1.77,3.72a3.9,3.9,0,0,0,2,2.89A.53.53,0,0,0,302,227.4Z"/><path class="cls-11" d="M252.35,308.4a1,1,0,0,1-.35-.06,1,1,0,0,1-.59-1.29c6.46-17.18,19.38-31.52,19.51-31.67a1,1,0,0,1,1.48,1.35c-.13.14-12.8,14.21-19.11,31A1,1,0,0,1,252.35,308.4Z"/><path class="cls-9" d="M303,237.09c-.41,0-.78,0-1.12,0a16.78,16.78,0,0,1-1.77-.2.49.49,0,0,1-.4-.58.5.5,0,0,1,.58-.4c.06,0,6.37,1.08,10.3-1.66a.5.5,0,0,1,.58.82C308.67,236.79,305.36,237.12,303,237.09Z"/><path class="cls-9" d="M305.25,240.9c-2.53,0-3.95-2.49-4.38-4a.49.49,0,0,1,.34-.62.5.5,0,0,1,.62.34c0,.15,1.19,3.9,4.29,3.14a3.83,3.83,0,0,0,3.12-3.9.49.49,0,0,1,.46-.53.5.5,0,0,1,.54.46,4.86,4.86,0,0,1-3.89,4.94A4.33,4.33,0,0,1,305.25,240.9Z"/><path class="cls-11" d="M332.77,334.07a6.85,6.85,0,0,1-5.37-2.39c-6.42-7.27-2.56-29.77-.92-39.37l.28-1.61a29.87,29.87,0,0,1,9.57-16.8l.64.77c-.08.06-7.57,6.31-9.23,16.2l-.27,1.61c-1.62,9.46-5.42,31.62.68,38.54a5.93,5.93,0,0,0,5,2l0,1Z"/><path class="cls-12" d="M327.25,290.78c-1.69,10.08-8.82,43.73,6.13,42.77"/><path class="cls-13" d="M327.25,247s-10.17,3.79-26-.56a95.07,95.07,0,0,1,23.12,12.47s1.83-8.9,2.87-11.91"/></svg>