<svg id="Layer_1" data-name="Layer 1" xmlns="http://www.w3.org/2000/svg" viewBox="0 0 400 400"><defs><style>.cls-1{fill:#f1f1f1;}.cls-2{fill:#969696;}.cls-3{fill:#c1a093;}.cls-4{fill:#f5f5f5;}.cls-5{fill:#eaeaea;}.cls-6{fill:#d8d8d8;}.cls-7{fill:#5c8b9e;}.cls-8{fill:#689bb5;}.cls-9{fill:#cca99b;}.cls-10{fill:#f7bcda;}.cls-11{fill:#f7f7cb;}.cls-12{fill:#46dbc9;}.cls-13{fill:#a5897f;}.cls-14{fill:#f7bab0;}.cls-15{fill:#00aa91;}</style></defs><path class="cls-1" d="M53.18,57.5h99a12.08,12.08,0,0,1,12.1,12.1h0V266.7a12.08,12.08,0,0,1-12.1,12.1H19.88c-6.7,0-12.1-5.4-9.7-11V104c0-5-.6-7.9,1.1-9.6L44.68,61A12.12,12.12,0,0,1,53.18,57.5Z"/><path class="cls-2" d="M11.38,94.3H42c3.7,0,3,.6,3-3.1L44.68,61"/><path class="cls-3" d="M322.28,78.1c0-.2.5-.7.8-.6,0-.2-.7-.5-.7-.5l-.1.3v.8Z"/><path class="cls-4" d="M64.18,68.4h99a12.08,12.08,0,0,1,12.1,12.1h0V277.6a12.08,12.08,0,0,1-12.1,12.1H31a12.08,12.08,0,0,1-12.1-12.1V113.8a12.12,12.12,0,0,1,3.5-8.5L55.68,72A12,12,0,0,1,64.18,68.4Z"/><path class="cls-5" d="M22.78,104.9h27.3a5.55,5.55,0,0,0,5.5-5.5V72.2"/><path class="cls-6" d="M123.48,103.9h31.9a4.23,4.23,0,0,1,4.2,4.2h0a4.23,4.23,0,0,1-4.2,4.2h-31.9a4.23,4.23,0,0,1-4.2-4.2h0A4.1,4.1,0,0,1,123.48,103.9Z"/><path class="cls-6" d="M123.48,124.2h31.9a4.23,4.23,0,0,1,4.2,4.2h0a4.23,4.23,0,0,1-4.2,4.2h-31.9a4.23,4.23,0,0,1-4.2-4.2h0A4.1,4.1,0,0,1,123.48,124.2Z"/><path class="cls-6" d="M39,159h116.3a4.23,4.23,0,0,1,4.2,4.2h0a4.23,4.23,0,0,1-4.2,4.2H39a4.23,4.23,0,0,1-4.2-4.2h0A4.23,4.23,0,0,1,39,159Z"/><path class="cls-6" d="M39,179h116.3a4.23,4.23,0,0,1,4.2,4.2h0a4.23,4.23,0,0,1-4.2,4.2H39a4.23,4.23,0,0,1-4.2-4.2h0A4.23,4.23,0,0,1,39,179Z"/><path class="cls-6" d="M39,199h116.3a4.23,4.23,0,0,1,4.2,4.2h0a4.23,4.23,0,0,1-4.2,4.2H39a4.23,4.23,0,0,1-4.2-4.2h0A4.23,4.23,0,0,1,39,199Z"/><path class="cls-6" d="M39,219.8h116.3a4.23,4.23,0,0,1,4.2,4.2h0a4.23,4.23,0,0,1-4.2,4.2H39a4.23,4.23,0,0,1-4.2-4.2h0A4.23,4.23,0,0,1,39,219.8Z"/><path class="cls-6" d="M39,239.7h116.3a4.23,4.23,0,0,1,4.2,4.2h0a4.23,4.23,0,0,1-4.2,4.2H39a4.23,4.23,0,0,1-4.2-4.2h0A4.23,4.23,0,0,1,39,239.7Z"/><path class="cls-7" d="M348.48,400c-2.6-4.5-37.1-79.2-37.1-85.1,0-2,10.9-63.4,15.8-64.1s16.5-5.6,20.2-6.9c.4,5,26.1,156.1,26.1,156.1Z"/><path class="cls-8" d="M268.68,400c0-9.8.3-154.8.3-154.8l67.5,2.6C336.48,278,293,376.5,293,400Z"/><path class="cls-9" d="M304,121.6c-1.9-2.9-10.5-17.4-11.3-19.9s-6.1-46.6-6.1-46.6l-15,.8s-1.6,47.1,0,50.7,13.5,26.7,13.5,26.7l9.2,5.9Z"/><path class="cls-10" d="M372.08,14.4l11.1-1.1a4.29,4.29,0,0,1,4.7,3.9l2.5,25.8a4.29,4.29,0,0,1-3.9,4.7l-11.1,1.1h0l-3.3-34.4Z"/><polygon class="cls-11" points="165.38 34.5 137.28 54.6 168.68 68.8 168.68 68.8 375.38 48.7 372.08 14.4 165.38 34.5"/><path class="cls-12" d="M317.08,117.8c39.7,0,30.6,110.1,30.3,126.1-6.2,7.5-70.5,5.7-78.7.6C266.58,227,274.18,117.8,317.08,117.8Z"/><path class="cls-9" d="M330.88,104.2c-.5,3.9-1.5,17.7-1.1,22.5-2.2,2.1-12.4,2.5-16.7-1.2.8-4,2.7-7.5,1.7-15.8S330.88,104.2,330.88,104.2Z"/><ellipse class="cls-9" cx="317.68" cy="86.2" rx="19" ry="25"/><path class="cls-12" d="M327.28,93.7c.8,1.1,1.7,9.2,3.4,9.7s9.2-13.6,9.2-19.3c0-10.3-6.1-33.3-15-33.3-3.2,0-3.5,5-3.5,6.9-1.1-2.7-5.9-8.3-12.1-8.3-10.5,0-10.3,9.9-8.5,17.6-1.8-1-1.9-1.3-4.1-1.3-2,0-3.1,2.6-3.1,5.3,0,6.6,3.5,8.9,6.3,10s10.7,1.6,15.9,1.5C316.58,84.1,321.38,93.8,327.28,93.7Z"/><circle class="cls-9" cx="323.38" cy="90.4" r="6"/><path class="cls-9" d="M306,135.7c-4.2-1.9-34.2-12.8-36.8-15.4s-22.1-40-22.7-41.8c.6-.6,1.6-3.5,1.5-6.8s-2.2-4.2-2.3-14.5c-.1-3.5-5.2.2-5.2,7.5-6.1-.5-13.9-15.5-18.7-8.9,16.3,32.9,34.3,83.6,35.8,85.1s40.5,21.2,41.4,20.6C299.88,161.1,307.78,137.9,306,135.7Z"/><path class="cls-3" d="M329.78,119.4c-2-4.2-11.8-8.7-14.9-8.5,13.5.3,15.9-6.6,15.9-6.6Z"/><path class="cls-12" d="M343.48,166.4c3.1-12-15.4-31.3-35.3-33.2-3.3,1.8-13,23.9-11.8,31C303.88,172.2,338.58,185.4,343.48,166.4Z"/><path class="cls-13" d="M323.78,94.4h0a3.93,3.93,0,0,0,3.8-3.8,4,4,0,0,0-3.8-4.2.4.4,0,1,0,0,.8,3.14,3.14,0,0,1,3,3.3,3.07,3.07,0,0,1-3,3,.43.43,0,0,0-.4.4A.46.46,0,0,0,323.78,94.4Z"/><path class="cls-13" d="M302.38,99.1c.1,0,.3-.1.3-.2a.47.47,0,0,0-.1-.6,3.58,3.58,0,0,1-1.7-2.3c-.2-1.2.7-2.3,1.4-3.2.1-.2.3-.3.4-.5a.43.43,0,1,0-.7-.5c-.1.1-.2.3-.4.5-.8,1-1.8,2.3-1.6,3.8a3.93,3.93,0,0,0,2.1,2.8C302.28,99.1,302.28,99.1,302.38,99.1Z"/><path class="cls-13" d="M306.28,106.1h.2a5.81,5.81,0,0,0,6-4.2.57.57,0,0,0-.4-.7c-.3-.1-.7,0-.7.3a4.87,4.87,0,0,1-4.9,3.5.56.56,0,0,0-.6.5A.68.68,0,0,0,306.28,106.1Z"/><ellipse class="cls-14" cx="313.78" cy="95.1" rx="3.1" ry="1.7"/><path class="cls-15" d="M328.38,177.2c-13.5,0-29.6-9.6-31.6-11.2s-1.6-5.2-1.5-5.6a1,1,0,1,1,1.9.3h0c-.1.7-.2,2.9.8,3.7,1.9,1.5,22.5,13.8,35.8,10.1a1,1,0,1,1,.5,1.9A18.72,18.72,0,0,1,328.38,177.2Z"/><polygon class="cls-2" points="137.28 54.6 152.68 43.5 154.48 62.4 137.28 54.6"/></svg>