<svg width="694" height="533" viewBox="0 0 694 533" fill="none" xmlns="http://www.w3.org/2000/svg">
<g clip-path="url(#clip0)">
<path d="M259.347 402.251C302.844 402.251 338.106 394.459 338.106 384.846C338.106 375.233 302.844 367.44 259.347 367.44C215.849 367.44 180.587 375.233 180.587 384.846C180.587 394.459 215.849 402.251 259.347 402.251Z" fill="#6B6B6B"/>
<path d="M258.776 384.628L214.484 523.051L215.672 523.431L259.964 385.008L258.776 384.628Z" fill="#6B6B6B"/>
<path d="M259.944 384.661L258.755 385.041L302.999 523.48L304.187 523.1L259.944 384.661Z" fill="#6B6B6B"/>
<path d="M278.597 445.688L229.28 477.318L229.954 478.369L279.271 446.738L278.597 445.688Z" fill="#6B6B6B"/>
<path d="M239.869 445.669L239.195 446.719L288.534 478.339L289.208 477.288L239.869 445.669Z" fill="#6B6B6B"/>
<path d="M336.858 234.995C336.659 241.134 336.746 262.632 335.735 271.828" stroke="#1F161E" stroke-miterlimit="10" stroke-linecap="round"/>
<path d="M605.447 216.454H612.935C613.721 216.448 614.472 216.133 615.028 215.577C615.584 215.022 615.899 214.27 615.905 213.485V167.469C615.902 166.683 615.588 165.929 615.032 165.373L605.572 155.915C605.297 155.639 604.971 155.419 604.611 155.269C604.251 155.12 603.865 155.042 603.475 155.042H575.533C574.747 155.045 573.993 155.359 573.437 155.915C572.88 156.472 572.566 157.225 572.563 158.012V162.453" fill="white"/>
<path d="M592.868 162.453H565.412C564.525 162.453 563.674 162.806 563.047 163.433C562.42 164.06 562.068 164.91 562.068 165.797V220.447C562.068 221.335 562.42 222.187 563.046 222.816C563.673 223.445 564.524 223.8 565.412 223.803H602.09C602.977 223.797 603.826 223.441 604.452 222.812C605.078 222.184 605.431 221.334 605.435 220.447V175.03C605.437 174.142 605.087 173.29 604.461 172.66L595.289 163.477C594.973 163.154 594.597 162.897 594.181 162.721C593.766 162.545 593.319 162.454 592.868 162.453Z" fill="#D8D8D8"/>
<path d="M605.447 173.733H596.125C595.628 173.733 595.152 173.536 594.801 173.185C594.45 172.834 594.253 172.357 594.253 171.861V162.453" fill="#969696"/>
<path d="M615.943 166.334H606.62C606.121 166.331 605.644 166.131 605.291 165.778C604.939 165.426 604.739 164.948 604.736 164.45V155.042" fill="#2DB3A8"/>
<path d="M562.105 99.9805H497.76C495.671 99.9805 493.978 101.673 493.978 103.761V124.773C493.978 126.86 495.671 128.553 497.76 128.553H562.105C564.194 128.553 565.887 126.86 565.887 124.773V103.761C565.887 101.673 564.194 99.9805 562.105 99.9805Z" fill="#00D1B7"/>
<path d="M529.92 148.142L538.581 121.915H521.259L529.92 148.142Z" fill="#00D1B7"/>
<path d="M512.76 107.591L505.497 120.156H520.011L512.76 107.591Z" fill="white"/>
<path d="M547.092 120.156L554.343 107.591H539.829L547.092 120.156Z" fill="white"/>
<path d="M529.92 119.333C532.932 119.333 535.373 116.891 535.373 113.88C535.373 110.869 532.932 108.427 529.92 108.427C526.908 108.427 524.466 110.869 524.466 113.88C524.466 116.891 526.908 119.333 529.92 119.333Z" fill="white"/>
<path d="M524.317 39.429H482.085C480.259 39.429 478.778 40.9093 478.778 42.7354V68.2636C478.778 70.0897 480.259 71.5701 482.085 71.5701H524.317C526.143 71.5701 527.624 70.0897 527.624 68.2636V42.7354C527.624 40.9093 526.143 39.429 524.317 39.429Z" fill="#D8D8D8"/>
<path d="M480.313 40.4396L503.201 55.4995" stroke="#969696" stroke-width="0.82" stroke-linecap="round" stroke-linejoin="round"/>
<path d="M527.624 39.429L503.201 55.4995" stroke="#969696" stroke-width="0.82" stroke-linecap="round" stroke-linejoin="round"/>
<path d="M527.624 46.416C531.483 46.416 534.612 43.2878 534.612 39.4288C534.612 35.5699 531.483 32.4417 527.624 32.4417C523.764 32.4417 520.635 35.5699 520.635 39.4288C520.635 43.2878 523.764 46.416 527.624 46.416Z" fill="#7EFBD5"/>
<path d="M528.475 40.0156H527.473V36.2409C527.107 36.5831 526.676 36.8361 526.179 37.0001V36.0912C526.441 36.0056 526.725 35.844 527.031 35.6064C527.338 35.3664 527.548 35.0872 527.662 34.7687H528.475V40.0156Z" fill="white"/>
<path d="M568.145 168.093H576.981C577.286 168.111 577.574 168.24 577.791 168.456C578.007 168.673 578.136 168.961 578.154 169.266C578.136 169.571 578.007 169.859 577.791 170.076C577.574 170.292 577.286 170.421 576.981 170.439H568.145C567.834 170.439 567.536 170.315 567.316 170.095C567.096 169.875 566.972 169.577 566.972 169.266C566.972 168.955 567.096 168.657 567.316 168.437C567.536 168.217 567.834 168.093 568.145 168.093Z" fill="#969696"/>
<path d="M568.145 173.733H576.981C577.286 173.751 577.574 173.88 577.791 174.096C578.007 174.312 578.136 174.6 578.154 174.906C578.136 175.211 578.007 175.499 577.791 175.715C577.574 175.931 577.286 176.061 576.981 176.079H568.145C567.834 176.079 567.536 175.955 567.316 175.735C567.096 175.515 566.972 175.217 566.972 174.906C566.972 174.595 567.096 174.296 567.316 174.076C567.536 173.856 567.834 173.733 568.145 173.733Z" fill="#969696"/>
<path d="M567.634 183.44H599.894C600.199 183.458 600.487 183.587 600.703 183.803C600.92 184.019 601.049 184.308 601.067 184.613C601.049 184.918 600.92 185.206 600.703 185.422C600.487 185.639 600.199 185.768 599.894 185.786H567.634C567.322 185.786 567.024 185.662 566.804 185.442C566.584 185.222 566.46 184.924 566.46 184.613C566.46 184.302 566.584 184.003 566.804 183.783C567.024 183.564 567.322 183.44 567.634 183.44Z" fill="#969696"/>
<path d="M567.634 188.917H599.894C600.199 188.935 600.487 189.065 600.703 189.281C600.92 189.497 601.049 189.785 601.067 190.09C601.049 190.396 600.92 190.684 600.703 190.9C600.487 191.116 600.199 191.245 599.894 191.263H567.634C567.322 191.263 567.024 191.14 566.804 190.92C566.584 190.7 566.46 190.401 566.46 190.09C566.46 189.779 566.584 189.481 566.804 189.261C567.024 189.041 567.322 188.917 567.634 188.917Z" fill="#969696"/>
<path d="M567.634 194.457H599.894C600.199 194.475 600.487 194.604 600.703 194.821C600.92 195.037 601.049 195.325 601.067 195.63C601.049 195.935 600.92 196.223 600.703 196.44C600.487 196.656 600.199 196.785 599.894 196.803H567.634C567.322 196.803 567.024 196.679 566.804 196.459C566.584 196.239 566.46 195.941 566.46 195.63C566.46 195.319 566.584 195.021 566.804 194.801C567.024 194.581 567.322 194.457 567.634 194.457Z" fill="#969696"/>
<path d="M438.568 67.1157H393.005C384.734 67.1157 378.029 73.8192 378.029 82.0883V104.31C378.029 112.579 384.734 119.283 393.005 119.283H438.568C446.839 119.283 453.544 112.579 453.544 104.31V82.0883C453.544 73.8192 446.839 67.1157 438.568 67.1157Z" fill="#D8D8D8"/>
<path d="M405.01 75.5128H393.654V110.885H405.01V75.5128Z" fill="#FAFCFF"/>
<path d="M421.471 99.0447H410.114V110.898H421.471V99.0447Z" fill="#FAFCFF"/>
<path d="M437.919 89.063H426.563V110.885H437.919V89.063Z" fill="#FAFCFF"/>
<path d="M450.524 506.772C450.524 509.73 448.789 528.383 452.246 530.105C455.703 531.827 493.704 532.875 495.426 531.14C497.148 529.406 498.184 525.788 496.674 524.752C495.164 523.716 480.45 520.784 478.453 519.399C476.457 518.014 473.699 510.665 474.709 506.772" fill="#6B6B6B"/>
<path d="M336.858 262.932L358.248 255.258C357.325 216.242 348.19 129.065 335.248 116.063C332.203 113.032 271.976 107.741 261.231 107.741C197.11 107.741 178.091 115.053 173.261 119.894C158.286 134.866 153.618 204.239 153.618 228.532C153.618 252.825 222.257 265.427 222.257 265.427L302.714 270.955C302.714 270.955 320.36 272.776 335.623 273.675C335.96 269.033 336.858 262.932 336.858 262.932Z" fill="#00D1B7"/>
<path d="M400.605 285.553C406.458 283.819 464.663 274.323 477.343 286.801C490.022 299.278 529.932 478.162 529.932 482.28H497.784L454.405 388.938" fill="#5C8B9E"/>
<path d="M188.674 269.645C187.214 276.944 178.44 284.779 178.44 324.544C178.44 379.531 223.492 380.691 239.666 380.691C290.059 380.691 371.589 365.718 377.093 362.973C380.75 369.087 448.053 506.46 448.365 509.53H479.352C479.352 509.53 460.146 304.007 425.489 280.762C414.233 273.275 214.519 265.203 188.674 269.645Z" fill="#689BB5"/>
<path d="M370.129 229.443C361.992 229.443 355.278 231.377 336.858 234.995L335.897 270.231C353.369 263.194 357.425 253.412 362.492 253.412C375.146 253.412 381.76 259.937 389.236 259.937C394.452 259.937 403.837 255.845 403.837 250.28C403.837 238.626 380.213 229.443 370.129 229.443Z" fill="#F8CDBA"/>
<path d="M499.606 479.809C499.606 482.779 497.872 501.42 501.329 503.154C504.786 504.888 542.786 505.912 544.509 504.19C546.231 502.468 547.267 498.837 545.757 497.801C544.247 496.766 529.533 493.821 527.536 492.436C525.539 491.051 522.781 483.702 523.792 479.809" fill="#6B6B6B"/>
<path d="M272.575 116.063C272.575 120.767 245.257 120.905 245.257 116.063V77.821H272.575V116.063Z" fill="#F8CDBA"/>
<path d="M263.677 90.4354C261.181 90.4354 245.257 97.4725 245.257 101.403V80.6409C249.226 80.6409 263.677 90.4354 263.677 90.4354Z" fill="#C1A093"/>
<path d="M268.956 92.0575C287.221 92.0575 302.027 77.2541 302.027 58.9931C302.027 40.7321 287.221 25.9287 268.956 25.9287C250.691 25.9287 235.885 40.7321 235.885 58.9931C235.885 77.2541 250.691 92.0575 268.956 92.0575Z" fill="#F8CDBA"/>
<path d="M303.088 33.0406C298.995 39.5412 290.434 42.5232 281.161 42.5232C273.261 42.5232 261.755 40.2274 253.568 44.8939C249.138 47.3893 244.059 53.0664 243.036 64.4331C243.036 66.3795 240.827 73.9282 240.827 76.3612C240.827 78.0207 238.955 79.1062 235.835 79.1062C234.225 79.1062 231.043 76.4985 231.043 72.5183C231.043 67.9142 232.877 66.2797 232.877 62.3744C232.877 58.469 228.097 54.7134 228.097 43.8583C228.097 28.2244 238.081 18.5921 245.145 18.5921C251.584 18.5921 253.606 20.0894 254.417 20.7257C254.417 6.51423 273.137 0.026123 280.562 0.026123C289.048 0.026123 293.042 3.50724 293.042 7.93663C293.042 14.9987 289.672 21.0002 287.963 22.3477C291.817 18.8745 296.826 16.9578 302.015 16.9701C311.737 16.9701 315.006 23.3584 315.006 27.7254C315.006 37.2205 303.612 46.0168 299.369 46.0168C298.3 43.7597 297.048 41.5939 295.625 39.5412" fill="#00D1B7"/>
<path d="M244.059 70.4096C247.953 70.4096 251.11 67.2534 251.11 63.36C251.11 59.4666 247.953 56.3104 244.059 56.3104C240.165 56.3104 237.008 59.4666 237.008 63.36C237.008 67.2534 240.165 70.4096 244.059 70.4096Z" fill="#F8CDBA"/>
<path d="M302.352 65.057C305.371 65.057 307.818 63.7833 307.818 62.2122C307.818 60.6411 305.371 59.3674 302.352 59.3674C299.333 59.3674 296.886 60.6411 296.886 62.2122C296.886 63.7833 299.333 65.057 302.352 65.057Z" fill="#FA9E9F"/>
<path d="M267.97 65.057C270.989 65.057 273.436 63.7833 273.436 62.2122C273.436 60.6411 270.989 59.3674 267.97 59.3674C264.951 59.3674 262.504 60.6411 262.504 62.2122C262.504 63.7833 264.951 65.057 267.97 65.057Z" fill="#FA9E9F"/>
<path d="M289.735 67.0034C289.614 67.0049 289.496 66.9715 289.394 66.9073C289.292 66.8431 289.211 66.7508 289.161 66.6416C289.093 66.4891 289.087 66.3161 289.146 66.1597C289.204 66.0034 289.321 65.8762 289.473 65.8056C289.949 65.6447 290.381 65.3731 290.733 65.0131C291.084 64.6531 291.345 64.2148 291.494 63.7344C292.068 61.5135 289.797 58.4441 288.824 57.134L288.487 56.6723C288.431 56.6066 288.389 56.53 288.364 56.4472C288.338 56.3644 288.331 56.2773 288.341 56.1915C288.352 56.1056 288.38 56.0229 288.424 55.9485C288.468 55.8741 288.527 55.8097 288.598 55.7593C288.668 55.709 288.748 55.6738 288.833 55.656C288.917 55.6382 289.005 55.6383 289.089 55.6561C289.174 55.6739 289.254 55.7091 289.324 55.7594C289.395 55.8098 289.454 55.8742 289.498 55.9486L289.822 56.3978C290.995 57.9699 293.429 61.2514 292.705 64.0463C292.506 64.7078 292.157 65.3144 291.685 65.8187C291.214 66.323 290.631 66.7114 289.984 66.9535C289.905 66.9867 289.82 67.0037 289.735 67.0034Z" fill="#C1A093"/>
<path d="M278.715 74.1528C276.631 74.1528 273.935 71.7322 272.687 70.0104C272.593 69.8774 272.555 69.7129 272.581 69.552C272.606 69.3911 272.694 69.2466 272.825 69.1495C272.89 69.0993 272.966 69.063 273.046 69.0427C273.126 69.0224 273.209 69.0185 273.291 69.0313C273.372 69.0442 273.451 69.0734 273.521 69.1173C273.591 69.1612 273.651 69.2188 273.698 69.2867C274.946 70.9961 277.305 72.9051 278.69 72.9051C278.856 72.9051 279.014 72.9708 279.131 73.0878C279.248 73.2048 279.314 73.3635 279.314 73.5289C279.314 73.6944 279.248 73.8531 279.131 73.9701C279.014 74.0871 278.856 74.1528 278.69 74.1528H278.715Z" fill="#C1A093"/>
<path d="M336.858 235.619C336.693 235.619 336.534 235.554 336.417 235.437C336.3 235.32 336.234 235.161 336.234 234.995C336.234 219.025 324.329 168.081 321.745 162.628C321.71 162.555 321.689 162.475 321.685 162.393C321.681 162.311 321.693 162.23 321.721 162.153C321.749 162.076 321.792 162.006 321.848 161.946C321.903 161.886 321.97 161.838 322.045 161.805C322.119 161.769 322.2 161.748 322.283 161.744C322.365 161.74 322.448 161.752 322.525 161.78C322.603 161.807 322.675 161.85 322.736 161.906C322.797 161.962 322.846 162.029 322.881 162.104C325.489 167.631 337.482 218.962 337.482 235.033C337.473 235.192 337.403 235.341 337.287 235.45C337.171 235.559 337.017 235.62 336.858 235.619Z" fill="#00AA91"/>
<path d="M153.618 224.452C153.618 281.959 154.155 298.641 177.242 298.641C230.456 298.641 310.9 254.971 325.24 254.971C337.906 254.971 344.521 261.509 351.996 261.509C357.2 261.509 366.585 257.404 366.585 251.852C366.585 240.186 342.961 231.003 332.89 231.003C310.214 231.003 219.723 252.863 217.514 252.863C215.306 252.863 211.587 251.902 211.587 248.184C211.587 241.434 216.004 225.837 216.578 224.477L153.618 224.452Z" fill="#F8CDBA"/>
<path d="M215.106 230.067H214.944C214.785 230.023 214.649 229.919 214.565 229.777C214.482 229.635 214.456 229.466 214.494 229.306C215.742 224.078 227.723 178.561 229.27 174.107C229.297 174.029 229.338 173.957 229.392 173.896C229.446 173.834 229.512 173.783 229.585 173.747C229.659 173.71 229.739 173.688 229.821 173.683C229.903 173.677 229.985 173.688 230.063 173.714C230.141 173.74 230.213 173.782 230.275 173.836C230.336 173.89 230.387 173.955 230.424 174.029C230.46 174.102 230.482 174.182 230.487 174.264C230.493 174.346 230.482 174.429 230.456 174.506C228.909 178.948 217.003 224.415 215.705 229.605C215.669 229.737 215.592 229.854 215.483 229.937C215.375 230.021 215.243 230.066 215.106 230.067Z" fill="#00AA91"/>
<path d="M688.238 528.882C686.598 529.312 684.854 529.073 683.39 528.22C681.925 527.366 680.859 525.966 680.425 524.328L616.504 281.336C616.078 279.698 616.318 277.958 617.172 276.496C618.025 275.035 619.423 273.971 621.059 273.537C622.699 273.108 624.443 273.346 625.907 274.199C627.372 275.053 628.438 276.453 628.872 278.091L692.768 521.071C693.199 522.707 692.964 524.447 692.115 525.911C691.266 527.375 689.872 528.443 688.238 528.882Z" fill="#969696"/>
<path d="M611.35 273.55C612.986 273.984 614.384 275.047 615.238 276.509C616.091 277.97 616.331 279.71 615.905 281.348L552.009 524.328C551.796 525.14 551.424 525.902 550.916 526.571C550.408 527.239 549.773 527.801 549.047 528.224C548.322 528.647 547.52 528.923 546.687 529.036C545.855 529.149 545.009 529.096 544.197 528.882C543.385 528.67 542.623 528.3 541.954 527.793C541.285 527.286 540.723 526.652 540.3 525.928C539.877 525.204 539.601 524.403 539.488 523.571C539.375 522.74 539.427 521.895 539.642 521.084L603.538 278.104C603.751 277.292 604.123 276.53 604.631 275.861C605.139 275.192 605.774 274.63 606.5 274.207C607.225 273.784 608.027 273.509 608.859 273.396C609.692 273.283 610.538 273.335 611.35 273.55Z" fill="#969696"/>
<path d="M523.181 273.55C524.819 273.981 526.219 275.044 527.073 276.506C527.927 277.969 528.165 279.71 527.736 281.348L463.84 524.328C463.628 525.14 463.258 525.902 462.751 526.57C462.244 527.238 461.61 527.8 460.885 528.223C460.16 528.647 459.359 528.922 458.528 529.035C457.697 529.148 456.851 529.096 456.04 528.882C455.228 528.67 454.466 528.3 453.797 527.793C453.128 527.286 452.566 526.653 452.143 525.928C451.72 525.204 451.444 524.403 451.331 523.572C451.218 522.74 451.27 521.895 451.485 521.084L515.418 278.104C515.85 276.475 516.907 275.082 518.361 274.229C519.815 273.376 521.548 273.132 523.181 273.55Z" fill="#D8D8D8"/>
<path d="M598.945 524.44C598.131 524.65 597.283 524.698 596.45 524.58C595.617 524.462 594.815 524.182 594.091 523.754C593.367 523.326 592.734 522.76 592.228 522.088C591.723 521.416 591.355 520.65 591.145 519.836L528.322 276.133C527.902 274.49 528.15 272.747 529.014 271.287C529.877 269.827 531.285 268.77 532.927 268.347C534.571 267.922 536.315 268.167 537.778 269.028C539.241 269.889 540.301 271.296 540.727 272.938L603.55 516.642C603.971 518.286 603.723 520.031 602.86 521.492C601.996 522.954 600.589 524.014 598.945 524.44Z" fill="#D8D8D8"/>
<path d="M155.438 278.105L91.543 521.087C90.6457 524.499 92.685 527.993 96.098 528.89C99.5109 529.787 103.005 527.748 103.902 524.336L167.797 281.353C168.694 277.941 166.655 274.448 163.242 273.55C159.829 272.653 156.335 274.692 155.438 278.105Z" fill="#969696"/>
<path d="M239.042 528.894C237.402 529.324 235.659 529.086 234.194 528.232C232.73 527.378 231.664 525.979 231.23 524.34L167.346 281.36C167.131 280.549 167.079 279.702 167.192 278.87C167.305 278.038 167.581 277.236 168.004 276.511C168.427 275.785 168.989 275.151 169.658 274.642C170.326 274.134 171.089 273.763 171.901 273.55C173.539 273.12 175.281 273.359 176.744 274.213C178.206 275.067 179.27 276.466 179.701 278.104L243.597 521.096C244.027 522.734 243.788 524.476 242.934 525.938C242.08 527.4 240.68 528.464 239.042 528.894Z" fill="#969696"/>
<path d="M655.241 261.547H37.2821C34.1599 261.547 31.6288 264.077 31.6288 267.199V274.798C31.6288 277.919 34.1599 280.45 37.2821 280.45H655.241C658.364 280.45 660.895 277.919 660.895 274.798V267.199C660.895 264.077 658.364 261.547 655.241 261.547Z" fill="#D8D8D8"/>
<path d="M64.1145 278.111L0.21987 521.093C-0.677402 524.505 1.36192 527.999 4.77484 528.896C8.18776 529.793 11.6819 527.754 12.5792 524.342L76.4738 281.359C77.3711 277.947 75.3317 274.454 71.9188 273.557C68.5059 272.659 65.0118 274.698 64.1145 278.111Z" fill="#D8D8D8"/>
<path d="M88.3806 278.109C87.4834 274.697 83.9893 272.658 80.5764 273.555C77.1634 274.452 75.1241 277.946 76.0214 281.358L139.916 524.34C140.813 527.752 144.307 529.791 147.72 528.894C151.133 527.997 153.173 524.504 152.275 521.092L88.3806 278.109Z" fill="#D8D8D8"/>
<path d="M494.265 261.547H378.815L399.731 189.679C400.25 187.941 401.319 186.419 402.777 185.341C404.236 184.264 406.005 183.688 407.818 183.702H505.784C507.973 183.669 510.086 184.505 511.658 186.028C513.231 187.551 514.134 189.636 514.171 191.825C514.183 192.625 514.082 193.423 513.871 194.195L494.265 261.547Z" fill="#6B6B6B"/>
<path d="M450.711 229.655C454.612 229.655 457.775 226.493 457.775 222.593C457.775 218.693 454.612 215.531 450.711 215.531C446.81 215.531 443.647 218.693 443.647 222.593C443.647 226.493 446.81 229.655 450.711 229.655Z" fill="white"/>
<path d="M392.53 256.494H311.524V261.547H392.53V256.494Z" fill="#6B6B6B"/>
</g>
<defs>
<clipPath id="clip0">
<rect width="693" height="532" fill="white" transform="translate(0.00512695 0.026123)"/>
</clipPath>
</defs>
</svg>
