<svg width="1016" height="401" viewBox="0 0 1016 401" fill="none" xmlns="http://www.w3.org/2000/svg">
<path d="M10.4403 233.884C7.9266 233.884 5.75563 233.006 3.92745 231.249C2.09927 229.492 1.18518 227.406 1.18518 224.99V12.1883C1.18518 9.77262 2.09927 7.68633 3.92745 5.92945C5.75563 4.17257 7.9266 3.29414 10.4403 3.29414H64.6002C70.9989 3.29414 75.9121 6.25886 79.3399 12.1883L129.044 91.2477L178.747 12.1883C182.175 6.25886 187.088 3.29414 193.487 3.29414H247.647C250.161 3.29414 252.332 4.17257 254.16 5.92945C255.988 7.68633 256.902 9.77262 256.902 12.1883V224.99C256.902 227.406 255.988 229.492 254.16 231.249C252.332 233.006 250.161 233.884 247.647 233.884H185.603C183.089 233.884 180.918 233.006 179.09 231.249C177.262 229.492 176.348 227.406 176.348 224.99V134.73L153.724 170.307C152.124 172.723 150.296 174.699 148.24 176.237C146.411 177.774 144.012 178.542 141.041 178.542H117.046C114.075 178.542 111.562 177.774 109.505 176.237C107.677 174.699 105.963 172.723 104.363 170.307L81.7394 134.73V224.99C81.7394 227.406 80.8253 229.492 78.9971 231.249C77.169 233.006 74.998 233.884 72.4843 233.884H10.4403Z" fill="#25796F"/>
<path d="M283.449 233.884C281.392 233.884 279.564 233.225 277.964 231.907C276.593 230.37 275.908 228.613 275.908 226.637C275.908 225.758 276.022 224.99 276.251 224.331L352.691 14.1648C353.605 11.3099 355.319 8.78438 357.833 6.58827C360.347 4.39218 363.775 3.29414 368.117 3.29414H442.501C446.843 3.29414 450.271 4.39218 452.784 6.58827C455.298 8.78438 457.012 11.3099 457.926 14.1648L534.367 224.331C534.595 224.99 534.71 225.758 534.71 226.637C534.71 228.613 533.91 230.37 532.31 231.907C530.939 233.225 529.225 233.884 527.168 233.884H463.753C456.898 233.884 452.442 231.139 450.385 225.649L442.158 203.907H368.459L360.233 225.649C358.176 231.139 353.72 233.884 346.864 233.884H283.449ZM424.676 139.672L405.137 78.4005L385.941 139.672H424.676Z" fill="#25796F"/>
<path d="M562.778 233.884C560.264 233.884 558.093 233.006 556.265 231.249C554.437 229.492 553.523 227.406 553.523 224.99V12.1883C553.523 9.77262 554.437 7.68633 556.265 5.92945C558.093 4.17257 560.264 3.29414 562.778 3.29414H664.242C697.149 3.29414 722.858 10.4314 741.368 24.7061C759.879 38.7611 769.134 58.3063 769.134 83.3418C769.134 97.6164 765.82 110.244 759.193 121.224C752.566 131.985 743.539 140.879 732.113 147.907L774.276 223.013C774.961 224.331 775.304 225.539 775.304 226.637C775.304 228.613 774.504 230.37 772.904 231.907C771.533 233.225 769.819 233.884 767.763 233.884H697.492C693.378 233.884 690.065 233.006 687.551 231.249C685.266 229.272 683.666 227.186 682.752 224.99L653.273 162.072H639.219V224.99C639.219 227.406 638.305 229.492 636.476 231.249C634.648 233.006 632.477 233.884 629.963 233.884H562.778ZM664.242 99.4831C669.269 99.4831 673.154 97.9458 675.897 94.8713C678.639 91.5771 680.01 87.5143 680.01 82.6829C680.01 77.8515 678.639 73.6789 675.897 70.1652C673.383 66.4318 669.498 64.5652 664.242 64.5652H639.219V99.4831H664.242Z" fill="#25796F"/>
<path d="M900.996 237.178C876.772 237.178 856.205 233.994 839.295 227.625C822.612 221.256 810.044 212.801 801.588 202.26C793.133 191.499 788.677 179.75 788.22 167.013C788.22 165.036 788.905 163.389 790.276 162.072C791.876 160.534 793.704 159.766 795.761 159.766H860.89C864.089 159.766 866.603 160.205 868.431 161.083C870.488 161.742 872.887 163.17 875.63 165.366C882.257 170.417 890.712 172.942 900.996 172.942C908.765 172.942 914.936 172.174 919.506 170.636C924.305 168.88 926.704 166.574 926.704 163.719C926.704 159.766 923.619 156.801 917.449 154.825C911.279 152.629 899.624 150.432 882.485 148.236C823.526 140.77 794.047 116.613 794.047 75.7652C794.047 61.0514 798.389 47.9846 807.073 36.565C815.985 24.9257 828.325 15.9217 844.094 9.553C859.862 3.18433 878.029 0 898.596 0C920.077 0 938.93 3.51375 955.155 10.5412C971.381 17.5687 983.835 26.4629 992.519 37.2238C1001.2 47.765 1005.77 58.0867 1006.23 68.1887C1006.23 70.1652 1005.43 71.9221 1003.83 73.4593C1002.46 74.777 1000.86 75.4358 999.032 75.4358H930.475C927.276 75.4358 924.762 75.1064 922.934 74.4476C921.106 73.5691 919.049 72.1417 916.764 70.1652C911.965 66.2122 905.909 64.2357 898.596 64.2357C887.627 64.2357 882.143 67.3103 882.143 73.4593C882.143 76.7535 884.771 79.4986 890.027 81.6947C895.511 83.8908 905.566 85.8673 920.192 87.6241C943.044 90.4791 961.326 94.7614 975.037 100.471C988.977 106.181 999.032 113.867 1005.2 123.53C1011.6 132.973 1014.8 144.942 1014.8 159.436C1014.8 175.029 1009.89 188.754 1000.06 200.613C990.234 212.252 976.637 221.256 959.269 227.625C942.13 233.994 922.705 237.178 900.996 237.178Z" fill="#25796F"/>
<path d="M53.1909 401C37.4275 401 24.9004 397.689 15.6094 391.068C6.31845 384.347 1.35979 374.064 0.733432 360.219C0.629039 357.511 0.576843 353.097 0.576843 346.977C0.576843 340.757 0.629039 336.243 0.733432 333.434C1.35979 319.991 6.42284 309.858 15.9226 303.036C25.4224 296.114 37.8451 292.653 53.1909 292.653C62.5862 292.653 71.1986 294.007 79.0281 296.716C86.962 299.425 93.3821 303.688 98.2886 309.507C103.299 315.225 105.857 322.448 105.961 331.176C105.961 332.079 105.596 332.882 104.865 333.584C104.239 334.186 103.456 334.487 102.517 334.487H70.5723C68.902 334.487 67.6493 334.186 66.8141 333.584C66.0834 332.982 65.4048 331.829 64.7785 330.123C63.6302 327.113 62.1165 325.007 60.2374 323.803C58.3583 322.599 55.9573 321.997 53.0343 321.997C49.3805 321.997 46.5619 322.95 44.5785 324.856C42.595 326.662 41.5511 329.772 41.4467 334.186C41.3423 336.895 41.2901 341.058 41.2901 346.676C41.2901 352.294 41.3423 356.558 41.4467 359.467C41.5511 363.881 42.595 367.041 44.5785 368.947C46.5619 370.753 49.3805 371.656 53.0343 371.656C58.9847 371.656 62.8994 368.947 64.7785 363.53C65.3004 361.825 65.9268 360.671 66.6575 360.069C67.4927 359.467 68.7976 359.166 70.5723 359.166H102.517C103.456 359.166 104.239 359.517 104.865 360.219C105.596 360.821 105.961 361.574 105.961 362.477C105.857 371.205 103.299 378.478 98.2886 384.297C93.3821 390.015 86.962 394.228 79.0281 396.937C71.1986 399.646 62.5862 401 53.1909 401Z" fill="black"/>
<path d="M167.877 401C152.218 401 139.743 397.539 130.452 390.617C121.161 383.695 116.202 373.612 115.576 360.37C115.471 357.661 115.419 353.297 115.419 347.278C115.419 341.158 115.471 336.694 115.576 333.885C115.889 325.257 118.238 317.834 122.622 311.614C127.111 305.394 133.218 300.679 140.943 297.468C148.668 294.258 157.646 292.653 167.877 292.653C178.107 292.653 187.085 294.258 194.81 297.468C202.535 300.679 208.59 305.394 212.974 311.614C217.463 317.834 219.864 325.257 220.178 333.885C220.386 339.503 220.491 343.967 220.491 347.278C220.491 350.589 220.386 354.953 220.178 360.37C219.551 373.612 214.593 383.695 205.302 390.617C196.011 397.539 183.536 401 167.877 401ZM167.877 371.656C171.426 371.656 174.192 370.653 176.176 368.646C178.264 366.64 179.36 363.58 179.464 359.467C179.673 353.648 179.777 349.385 179.777 346.676C179.777 343.767 179.673 339.603 179.464 334.186C179.36 330.073 178.264 327.013 176.176 325.007C174.088 323 171.322 321.997 167.877 321.997C164.432 321.997 161.665 323 159.577 325.007C157.49 327.013 156.393 330.073 156.289 334.186C156.185 336.895 156.132 341.058 156.132 346.676C156.132 352.294 156.185 356.558 156.289 359.467C156.393 363.58 157.437 366.64 159.421 368.646C161.509 370.653 164.327 371.656 167.877 371.656Z" fill="black"/>
<path d="M238.841 399.495C237.693 399.495 236.701 399.094 235.866 398.291C235.031 397.489 234.613 396.536 234.613 395.432V298.221C234.613 297.117 235.031 296.164 235.866 295.362C236.701 294.559 237.693 294.158 238.841 294.158H270.159C271.307 294.158 272.299 294.559 273.134 295.362C273.969 296.164 274.387 297.117 274.387 298.221V368.646H317.762C318.91 368.646 319.902 369.048 320.737 369.85C321.572 370.653 321.99 371.606 321.99 372.709V395.432C321.99 396.536 321.572 397.489 320.737 398.291C319.902 399.094 318.91 399.495 317.762 399.495H238.841Z" fill="black"/>
<path d="M336.862 399.495C335.714 399.495 334.722 399.094 333.887 398.291C333.052 397.489 332.634 396.536 332.634 395.432V298.221C332.634 297.117 333.052 296.164 333.887 295.362C334.722 294.559 335.714 294.158 336.862 294.158H368.18C369.328 294.158 370.32 294.559 371.155 295.362C371.99 296.164 372.408 297.117 372.408 298.221V368.646H415.783C416.932 368.646 417.923 369.048 418.758 369.85C419.594 370.653 420.011 371.606 420.011 372.709V395.432C420.011 396.536 419.594 397.489 418.758 398.291C417.923 399.094 416.932 399.495 415.783 399.495H336.862Z" fill="black"/>
<path d="M434.884 399.495C433.735 399.495 432.744 399.094 431.908 398.291C431.073 397.489 430.656 396.536 430.656 395.432V298.221C430.656 297.117 431.073 296.164 431.908 295.362C432.744 294.559 433.735 294.158 434.884 294.158H515.214C516.362 294.158 517.354 294.559 518.189 295.362C519.024 296.164 519.442 297.117 519.442 298.221V319.439C519.442 320.542 519.024 321.495 518.189 322.298C517.354 323.101 516.362 323.502 515.214 323.502H468.237V332.982H511.769C512.917 332.982 513.909 333.383 514.744 334.186C515.579 334.989 515.997 335.942 515.997 337.045V356.608C515.997 357.711 515.579 358.664 514.744 359.467C513.909 360.27 512.917 360.671 511.769 360.671H468.237V370.151H516.467C517.615 370.151 518.607 370.553 519.442 371.355C520.277 372.158 520.695 373.111 520.695 374.214V395.432C520.695 396.536 520.277 397.489 519.442 398.291C518.607 399.094 517.615 399.495 516.467 399.495H434.884Z" fill="black"/>
<path d="M583.974 401C568.21 401 555.683 397.689 546.392 391.068C537.101 384.347 532.143 374.064 531.516 360.219C531.412 357.511 531.36 353.097 531.36 346.977C531.36 340.757 531.412 336.243 531.516 333.434C532.143 319.991 537.206 309.858 546.705 303.036C556.205 296.114 568.628 292.653 583.974 292.653C593.369 292.653 601.982 294.007 609.811 296.716C617.745 299.425 624.165 303.688 629.071 309.507C634.082 315.225 636.64 322.448 636.744 331.176C636.744 332.079 636.379 332.882 635.648 333.584C635.022 334.186 634.239 334.487 633.299 334.487H601.355C599.685 334.487 598.432 334.186 597.597 333.584C596.866 332.982 596.188 331.829 595.561 330.123C594.413 327.113 592.899 325.007 591.02 323.803C589.141 322.599 586.74 321.997 583.817 321.997C580.163 321.997 577.345 322.95 575.361 324.856C573.378 326.662 572.334 329.772 572.23 334.186C572.125 336.895 572.073 341.058 572.073 346.676C572.073 352.294 572.125 356.558 572.23 359.467C572.334 363.881 573.378 367.041 575.361 368.947C577.345 370.753 580.163 371.656 583.817 371.656C589.768 371.656 593.682 368.947 595.561 363.53C596.083 361.825 596.71 360.671 597.44 360.069C598.276 359.467 599.58 359.166 601.355 359.166H633.299C634.239 359.166 635.022 359.517 635.648 360.219C636.379 360.821 636.744 361.574 636.744 362.477C636.64 371.205 634.082 378.478 629.071 384.297C624.165 390.015 617.745 394.228 609.811 396.937C601.982 399.646 593.369 401 583.974 401Z" fill="black"/>
<path d="M677.677 399.495C676.528 399.495 675.536 399.094 674.701 398.291C673.866 397.489 673.449 396.536 673.449 395.432V326.511H647.455C646.306 326.511 645.315 326.11 644.48 325.308C643.644 324.505 643.227 323.552 643.227 322.448V298.221C643.227 297.117 643.644 296.164 644.48 295.362C645.315 294.559 646.306 294.158 647.455 294.158H739.216C740.365 294.158 741.356 294.559 742.191 295.362C743.027 296.164 743.444 297.117 743.444 298.221V322.448C743.444 323.552 743.027 324.505 742.191 325.308C741.356 326.11 740.365 326.511 739.216 326.511H713.222V395.432C713.222 396.536 712.805 397.489 711.97 398.291C711.134 399.094 710.143 399.495 708.994 399.495H677.677Z" fill="black"/>
<path d="M758.92 399.495C757.771 399.495 756.78 399.094 755.944 398.291C755.109 397.489 754.692 396.536 754.692 395.432V298.221C754.692 297.117 755.109 296.164 755.944 295.362C756.78 294.559 757.771 294.158 758.92 294.158H790.864C792.012 294.158 793.004 294.559 793.839 295.362C794.674 296.164 795.092 297.117 795.092 298.221V395.432C795.092 396.536 794.674 397.489 793.839 398.291C793.004 399.094 792.012 399.495 790.864 399.495H758.92Z" fill="black"/>
<path d="M842.721 399.495C840.737 399.495 839.171 398.994 838.023 397.99C836.874 396.987 836.092 395.833 835.674 394.529L806.235 298.522L806.079 297.468C806.079 296.566 806.392 295.813 807.018 295.211C807.749 294.509 808.584 294.158 809.524 294.158H838.649C840.633 294.158 842.199 294.659 843.347 295.663C844.495 296.666 845.278 297.82 845.696 299.124L860.572 355.103L875.448 299.124C875.865 297.82 876.648 296.666 877.797 295.663C878.945 294.659 880.511 294.158 882.494 294.158H911.62C912.559 294.158 913.342 294.509 913.969 295.211C914.699 295.813 915.065 296.566 915.065 297.468L914.908 298.522L885.469 394.529C885.052 395.833 884.269 396.987 883.121 397.99C881.972 398.994 880.406 399.495 878.423 399.495H842.721Z" fill="black"/>
<path d="M930.189 399.495C929.041 399.495 928.049 399.094 927.214 398.291C926.379 397.489 925.961 396.536 925.961 395.432V298.221C925.961 297.117 926.379 296.164 927.214 295.362C928.049 294.559 929.041 294.158 930.189 294.158H1010.52C1011.67 294.158 1012.66 294.559 1013.49 295.362C1014.33 296.164 1014.75 297.117 1014.75 298.221V319.439C1014.75 320.542 1014.33 321.495 1013.49 322.298C1012.66 323.101 1011.67 323.502 1010.52 323.502H963.543V332.982H1007.07C1008.22 332.982 1009.21 333.383 1010.05 334.186C1010.88 334.989 1011.3 335.942 1011.3 337.045V356.608C1011.3 357.711 1010.88 358.664 1010.05 359.467C1009.21 360.27 1008.22 360.671 1007.07 360.671H963.543V370.151H1011.77C1012.92 370.151 1013.91 370.553 1014.75 371.355C1015.58 372.158 1016 373.111 1016 374.214V395.432C1016 396.536 1015.58 397.489 1014.75 398.291C1013.91 399.094 1012.92 399.495 1011.77 399.495H930.189Z" fill="black"/>
</svg>
