<svg id="Layer_1" data-name="Layer 1" xmlns="http://www.w3.org/2000/svg" viewBox="0 0 400 400"><defs><style>.cls-1{fill:#969696;}.cls-2{fill:#efc6b6;}.cls-3{fill:#6b6b6b;}.cls-4{fill:#5c8b9e;}.cls-5{fill:#689bb5;}.cls-6{fill:#46dbc9;}.cls-7{fill:#f8cdba;}.cls-8{fill:#d8d8d8;}.cls-9{fill:#00aa91;}.cls-10{fill:#c1a093;}.cls-11{fill:#ffd0cc;}.cls-12{fill:#f5f5f5;}.cls-13{fill:#689bc1;}.cls-14{fill:#68c9b5;}.cls-15{fill:#39d9b5;}.cls-16{fill:#2f4859;}.cls-17{fill:#d5d6db;}.cls-18{fill:#64798a;}.cls-19{fill:#01d0fb;}.cls-20{fill:#62dbfb;}.cls-21{fill:#99e6fc;}.cls-22{fill:#c8effe;}.cls-23{fill:#05e39c;}.cls-24{fill:#00f2a6;}.cls-25{fill:#6cf5c2;}.cls-26{fill:#9cf8d2;}.cls-27{fill:#fed402;}.cls-28{fill:#fee45a;}.cls-29{fill:#fee97d;}.cls-30{fill:#fef0ae;}.cls-31{fill:#f9f7f8;}.cls-32{fill:#f9b1b1;}.cls-33{fill:#f79595;}.cls-34{fill:#ee6161;}.cls-35{fill:#f47c7c;}.cls-36{fill:#e5e1e5;}.cls-37{fill:#a3a3a3;}.cls-38{fill:#7a7a7a;}.cls-39{fill:#d8b3a7;}</style></defs><path class="cls-1" d="M206.67,400l31.22-102.39a3.32,3.32,0,0,1,3.9-2h0a2.74,2.74,0,0,1,2.27,3.43L213.36,400"/><path class="cls-2" d="M322.13,162.69a23.23,23.23,0,0,0-.61-7.23l-.27-1.11a5.79,5.79,0,0,0,1.4-5c-.38-2.82-2.24-4.89-4.2-4.74-3.09-8.81-7.5-15-15.82-15A17.77,17.77,0,0,0,291.1,134c-1.43.25-2.87.54-4.29.89-8.26,2.06-4.9,20.87-4.9,20.87,1.87,13.77,10.2,26.18,20.72,26.18a18.12,18.12,0,0,0,9-2.49c4,6.35,9.33,19.57,9.33,19.57l15.91-15.74C333.76,182.08,324.56,166.81,322.13,162.69Z"/><ellipse class="cls-3" cx="326.05" cy="334.79" rx="53.12" ry="11.79"/><rect class="cls-3" x="261.74" y="380.37" width="98.07" height="2" transform="translate(-147.14 561.2) rotate(-72.26)"/><rect class="cls-3" x="340.47" y="332.35" width="2" height="98.08" transform="translate(-99.89 122.04) rotate(-17.72)"/><rect class="cls-3" x="302.69" y="385.54" width="39.48" height="2" transform="translate(-157.67 235.3) rotate(-32.68)"/><rect class="cls-3" x="328.6" y="366.76" width="2" height="39.57" transform="translate(-173.7 455.41) rotate(-57.34)"/><path class="cls-2" d="M261.88,280.18c-.08-3.34,27.4-90.08,30.49-93a10.32,10.32,0,0,1,7.83-3c1.36.06,7.93,3.16,9.32,6.43-2.37,5.6-8.07,8.72-8.07,8.72l-11.09,68.51Z"/><path class="cls-4" d="M295.37,332.19,350.15,400H315l-57.49-50.25,13.79-19Z"/><path class="cls-5" d="M269.78,400c-5.35-4.86-53-62.89-53-72.56,0-21.58,24.48-29.22,31.15-30.91,9.21-.83,55.17-6.43,61.59-6.16,4.63,5,53.25,18.77,61,17.77,0,3.9-6.19,31.19-50.17,31.19-4.6,0-39.27-1.39-39.91-1.39,0,8.12,21,58.48,23.14,62.06"/><path class="cls-6" d="M341.79,182c35.59,0,43.3,64.21,43.3,82.43,0,23.23-9.43,41.8-13.92,43.54-12.72,4.89-59.41-11.13-62.37-18.71-14.43-36.94,9.32-107.26,33-107.26"/><path class="cls-6" d="M354.27,197.51c16.94,5.89,8.31,42.19,3.54,43.41s-33.52-10.15-34.42-13.21,11.08-37.1,30.88-30.2"/><path class="cls-7" d="M325.37,229.49c-1.38,2-9,26.71-9,26.71s-53.93,23.26-56.62,24.46c-1-1.34-4.21-3.79-10.76-3.79-12,0-14.06,7.95-14.06,9.66s18.23,5.5,23.12,5.38,73.25-10.52,75.69-11.74,18.81-39.85,18.81-39.85c-4.43-.23-24.84-6.55-27.16-10.82"/><path class="cls-8" d="M118.79,288.11H273.24c1.21,0,2.18,1.25,2.18,2.79v4.61c0,1.55-1,2.8-2.18,2.8H118.79c-1.21,0-2.18-1.25-2.18-2.8V290.9C116.61,289.36,117.58,288.11,118.79,288.11Z"/><rect class="cls-3" x="189.88" y="281.4" width="55.93" height="6.7" rx="3.35"/><rect class="cls-3" x="174.55" y="220.95" width="7.3" height="70.5" rx="3.65" transform="translate(-95.92 107.03) rotate(-26.62)"/><path class="cls-1" d="M107.78,400,139,297.61a3.32,3.32,0,0,1,3.9-2h0a2.73,2.73,0,0,1,2.27,3.43L114.46,400"/><path class="cls-8" d="M176.51,400,145.26,297.5a3.32,3.32,0,0,0-3.9-2h0a2.73,2.73,0,0,0-2.27,3.42l30.74,101"/><path class="cls-6" d="M314.48,141.93c2.45,3.78,7.53,2,8.17,7.46,2.17-.09,5.55-14.24,4.39-19-2.09-8.59-13.77-26.08-24-23.59-3.68.89-3,5.15-2.63,6.74-1.81-2-8.47-5.28-15.61-3.55-12.09,2.94-9.85,11.14-6.22,17.06-2.27-.33-2.45-.55-5,.07-2.3.56-3,3-2.5,5.28,1.34,5.51,5.84,6.45,9.28,6.59S293,137.34,299,135.8C300.22,136.91,307.71,143.66,314.48,141.93Z"/><path class="cls-9" d="M352.54,240.82h-.07c-9.43-1.38-16.07-4.46-23.1-7.73l-1.08-.5a7.52,7.52,0,0,1-4.18-4.37c-1.41-4,.8-8.55.89-8.75a58.53,58.53,0,0,1,11-17.4c7.62-8.12,17.83-5.22,17.93-5.19a.5.5,0,0,1-.28,1c-.1,0-9.73-2.75-16.92,4.91a57.41,57.41,0,0,0-10.83,17.12c0,.09-2.14,4.41-.87,8a6.61,6.61,0,0,0,3.66,3.8l1.08.5c7,3.23,13.54,6.28,22.82,7.64a.5.5,0,0,1-.07,1Z"/><path class="cls-10" d="M291.57,164.7c.1,0,.27-.15.25-.24a.35.35,0,0,0-.23-.46,3.08,3.08,0,0,1-2.15-1.42c-.45-.92.18-2.05.67-3,.05-.19.23-.32.28-.51a.35.35,0,0,0-.23-.46.53.53,0,0,0-.56.24c-.07.1-.13.29-.28.51-.56,1-1.25,2.33-.73,3.49a3.39,3.39,0,0,0,2.65,1.73A.49.49,0,0,0,291.57,164.7Z"/><path class="cls-10" d="M293.85,174.57l.2,0a5.81,5.81,0,0,0,5.74-4.55.58.58,0,0,0-.44-.68c-.31-.08-.7,0-.69.34a4.87,4.87,0,0,1-4.67,3.8.55.55,0,0,0-.57.53A.69.69,0,0,0,293.85,174.57Z"/><ellipse class="cls-11" cx="307.53" cy="160.01" rx="3.3" ry="1.7" transform="matrix(0.97, -0.26, 0.26, 0.97, -30.7, 83.99)"/><ellipse class="cls-11" cx="285.32" cy="166.59" rx="1.99" ry="1.41" transform="translate(-32.35 75.78) rotate(-14.33)"/><path class="cls-10" d="M317.86,153.75h0a3.61,3.61,0,0,0,3.49-3.49,3.68,3.68,0,0,0-3.49-3.85.37.37,0,0,0,0,.73,2.89,2.89,0,0,1,2.76,3,2.84,2.84,0,0,1-2.76,2.76.39.39,0,0,0-.36.36C317.5,153.66,317.68,153.75,317.86,153.75Z"/><path class="cls-8" d="M275.42,400.05,244.16,297.5a3.33,3.33,0,0,0-3.91-2h0A2.73,2.73,0,0,0,238,299l30.74,101"/><rect class="cls-12" x="22.8" y="41.97" width="126" height="55.26" rx="8.79"/><rect class="cls-13" x="43.47" y="48" width="18.48" height="18.48" rx="9.24"/><rect class="cls-9" x="76.56" y="48" width="18.48" height="18.48" rx="9.24"/><rect class="cls-5" x="109.64" y="48" width="18.48" height="18.48" rx="9.24"/><rect class="cls-14" x="43.47" y="72.72" width="18.48" height="18.48" rx="9.24"/><rect class="cls-15" x="76.56" y="72.72" width="18.48" height="18.48" rx="9.24"/><rect class="cls-6" x="109.64" y="72.72" width="18.48" height="18.48" rx="9.24"/><path class="cls-16" d="M163.43,8.43h0a5,5,0,0,0-7,0l-7.63,7.62,7,7,7.63-7.63A5,5,0,0,0,163.43,8.43Z"/><path class="cls-17" d="M147.83,15.8,131.05,32.58a19.82,19.82,0,0,0-5.73,12.53l-2.06,2.06a1,1,0,0,0,0,1.42h0a1,1,0,0,0,1.42,0l2.06-2.06a19.82,19.82,0,0,0,12.53-5.73L156.05,24Z"/><path class="cls-5" d="M127.74,37h15.32l-3.79,3.79a19.82,19.82,0,0,1-12.53,5.73l-2.06,2.06a1,1,0,0,1-1.42,0h0a1,1,0,0,1,0-1.42l2.06-2.06A19.75,19.75,0,0,1,127.74,37Z"/><path class="cls-18" d="M146,14h0a1.68,1.68,0,0,0,0,2.37l9.49,9.49a1.68,1.68,0,0,0,2.37,0h0a1.67,1.67,0,0,0,0-2.37L148.32,14A1.68,1.68,0,0,0,146,14Z"/><path class="cls-19" d="M84,199.63l-.77,9.75L100,229.59l22.19-16.36-18.48-21.16L97,189.2Z"/><path class="cls-20" d="M75.3,190l-1.92,7.62,9.83,11.81,20.51-17.31-10.45-12L87.74,179Z"/><path class="cls-21" d="M63.75,175.84l-.52,9.53,10.15,12.2L93.27,180.1l-10.49-12-6.56-3.38Z"/><path class="cls-22" d="M66.64,161.13a7.57,7.57,0,0,1,10.67.69l5.47,6.27L63.23,185.37,52.81,172.83l6.47-5.25Z"/><path class="cls-23" d="M73.26,207.39l3.3,10.09,31.21,20,11.55-27.07L93.73,192.17,84.11,191Z"/><path class="cls-24" d="M60,196.43l1.72,11.5,14.89,9.55,17.17-25.31-13.61-9.71-9.35-1.33Z"/><path class="cls-25" d="M58.76,172.85,47.07,190.48l.81,8.61,13.79,8.84,18.45-25.47-14-10Z"/><path class="cls-26" d="M48.26,169a7.58,7.58,0,0,1,10.55-1.76l7.27,5.2-18.2,26.65L34,190.17,41.87,178Z"/><path class="cls-27" d="M67.67,226.16l34.38,14.48a17.44,17.44,0,0,0,13.53-32.14l-34-14.31Z"/><path class="cls-28" d="M64.91,189.1,53.44,212.69l2,7.11L72.15,227l12.77-31.42-16.2-6.81Z"/><path class="cls-29" d="M46.06,182.51l-8.48,25.17,2.3,5.29,15.62,6.75,13.22-30.95-16.31-6.86Z"/><path class="cls-30" d="M33.5,182.23a7.56,7.56,0,0,1,9.88-4.08l9,3.76L39.88,213l-13.55-5.86a7.55,7.55,0,0,1-.42-6.65Z"/><path class="cls-31" d="M93,241.79l-17.62-.26-17.61-.26L40.14,241l-9.68-.14A7.57,7.57,0,0,1,23,233.2l.29-19.75A7.55,7.55,0,0,1,31,206l78.26,1.16a17.44,17.44,0,1,1-.52,34.87Z"/><path class="cls-32" d="M31,206l9.67.14,1.4,17.91-1.91,17-9.68-.14A7.57,7.57,0,0,1,23,233.2l.29-19.75A7.55,7.55,0,0,1,31,206Z"/><path class="cls-33" d="M40.65,206.14l17.62.26,1.82,17.69-2.34,17.18L40.14,241Z"/><path class="cls-34" d="M75.88,206.67l17.61.26L93,241.79l-17.62-.26-1.83-17Z"/><path class="cls-35" d="M57.75,241.27l.52-34.87,17.61.27-.52,34.86Z"/><circle class="cls-36" cx="109.04" cy="224.95" r="5.93"/><path class="cls-37" d="M190.85,158.22a34.89,34.89,0,0,1-40.22-18.13L149.57,138l4.25-2.12,1.05,2.13A30.16,30.16,0,0,0,212,122.75l-.15-2.37,4.74-.28.14,2.37a34.89,34.89,0,0,1-25.84,35.75Z"/><path class="cls-38" d="M191.45,153.15a30.17,30.17,0,0,0,22.34-30.89l-.12-2-1.86.11.15,2.37a30.17,30.17,0,0,1-21.43,30.63l.92-.23Z"/><path class="cls-38" d="M169.17,155.75a34.94,34.94,0,0,1-16.71-16.15l-1.06-2.12,2.59-1.29-.17-.34L149.57,138l1.06,2.12a34.89,34.89,0,0,0,40.22,18.13l.91-.25a35,35,0,0,1-22.59-2.22Z"/><path class="cls-37" d="M219.41,172.14l-7.73,0a5,5,0,0,0-4.85,4.05l-1.38,7.61a5,5,0,0,1-9.58.61l-9.75-30.75a4.94,4.94,0,0,1,7-5.87l28.56,15a4.94,4.94,0,0,1-2.28,9.32Z"/><path class="cls-38" d="M204.44,186.08a5,5,0,0,1-8.57-1.64l-9.75-30.75a5,5,0,0,1,5.79-6.33A4.84,4.84,0,0,0,191,152l9.76,30.76A4.76,4.76,0,0,0,204.44,186.08Z"/><path class="cls-6" d="M155.39,138.33l-6.55,1.75a3.41,3.41,0,0,1-4.16-2.41l-1.75-6.55a3.4,3.4,0,0,1,2.41-4.16l6.55-1.75a3.39,3.39,0,0,1,4.16,2.41l1.75,6.55A3.41,3.41,0,0,1,155.39,138.33Z"/><path class="cls-9" d="M153.21,138.91l-4.37,1.16a3.39,3.39,0,0,1-4.16-2.4l-1.75-6.55a3.4,3.4,0,0,1,2.41-4.16l4.37-1.17A3.41,3.41,0,0,0,147.3,130l1.75,6.55A3.4,3.4,0,0,0,153.21,138.91Z"/><path class="cls-6" d="M218.24,121.57l-6.56,1.74a3.38,3.38,0,0,1-4.15-2.4l-1.75-6.56a3.38,3.38,0,0,1,2.4-4.15l6.56-1.75a3.39,3.39,0,0,1,4.15,2.4l1.75,6.56A3.4,3.4,0,0,1,218.24,121.57Z"/><path class="cls-9" d="M216.05,122.15l-4.37,1.16a3.38,3.38,0,0,1-4.15-2.4l-1.75-6.56a3.38,3.38,0,0,1,2.4-4.15l4.37-1.17a3.39,3.39,0,0,0-2.4,4.16l1.75,6.55A3.4,3.4,0,0,0,216.05,122.15Z"/><path class="cls-39" d="M311.64,179.48s9.95-9.14,10.49-16.79l5.92,9.57S319.78,170.82,311.64,179.48Z"/></svg>